<?xml version="1.0" standalone="no"?>
<!DOCTYPE svg PUBLIC "-//W3C//DTD SVG 20010904//EN"
 "http://www.w3.org/TR/2001/REC-SVG-20010904/DTD/svg10.dtd">
<svg version="1.0" xmlns="http://www.w3.org/2000/svg"
 width="250.000000pt" height="250.000000pt" viewBox="0 0 250.000000 250.000000"
 preserveAspectRatio="xMidYMid meet">
<metadata>
Created by potrace 1.14, written by Peter Selinger 2001-2017
</metadata>
<g transform="translate(0.000000,250.000000) scale(0.100000,-0.100000)"
fill="#000000" stroke="none">
<path d="M280 1836 c0 -656 0 -665 20 -671 11 -3 20 -10 20 -14 0 -5 25 -39
55 -77 30 -38 68 -87 85 -109 17 -22 45 -57 62 -78 58 -70 58 -69 58 462 0
557 -2 543 77 462 66 -67 86 -67 147 0 36 40 50 49 59 40 9 -9 13 -198 17
-729 l5 -717 60 -78 c58 -77 79 -104 130 -177 53 -77 83 -106 96 -93 9 9 13
294 17 1228 l5 1215 -122 0 c-77 0 -121 -4 -121 -10 0 -6 -28 -41 -62 -78 -35
-38 -80 -87 -101 -110 -21 -23 -44 -42 -52 -42 -21 0 -215 207 -215 229 0 7
-38 11 -120 11 l-120 0 0 -664z"/>
<path d="M1328 2253 c-7 -505 -8 -2181 -2 -2197 11 -28 41 -17 73 27 18 23 62
82 99 131 37 49 84 113 105 142 l37 54 0 490 c0 481 0 490 20 490 10 0 43 -21
72 -46 29 -25 63 -54 76 -64 22 -18 22 -21 22 -268 0 -289 3 -299 64 -229 21
23 62 76 92 117 30 41 61 83 70 92 9 10 22 26 28 38 28 50 113 160 129 165 14
5 17 19 17 90 l0 83 -44 26 c-44 26 -65 64 -43 78 7 4 29 8 50 8 l37 0 0 510
0 510 -450 0 -449 0 -3 -247z m582 -83 c18 -18 20 -33 20 -174 0 -85 -3 -161
-6 -170 -5 -14 -27 -16 -139 -16 -74 0 -136 4 -139 9 -10 16 -17 295 -8 326
l8 30 115 6 c63 3 117 6 122 7 4 1 16 -7 27 -18z"/>
</g>
</svg>
